<?xml version="1.0" standalone="no"?>
<!DOCTYPE svg PUBLIC "-//W3C//DTD SVG 20010904//EN"
 "http://www.w3.org/TR/2001/REC-SVG-20010904/DTD/svg10.dtd">
<svg version="1.0" xmlns="http://www.w3.org/2000/svg"
 width="256.000000pt" height="256.000000pt" viewBox="0 0 256.000000 256.000000"
 preserveAspectRatio="xMidYMid meet">

<g transform="translate(0.000000,256.000000) scale(0.100000,-0.100000)"
fill="#000000" stroke="none">
<path d="M1272 2242 c-19 -10 -40 -29 -48 -42 -12 -22 -175 -410 -386 -920
-64 -154 -69 -191 -34 -245 31 -46 63 -59 163 -63 85 -4 94 -6 98 -26 2 -11
18 -124 35 -251 44 -320 45 -326 83 -363 45 -44 101 -51 147 -20 28 19 50 56
127 218 51 107 158 330 238 495 123 255 145 307 145 346 0 92 -58 129 -199
129 l-89 0 -5 43 c-48 358 -92 636 -104 655 -20 32 -72 62 -108 62 -17 0 -45
-8 -63 -18z m68 -154 c-1 -13 16 -140 37 -283 l37 -260 -46 -87 -45 -88 193 0
c107 0 194 -2 194 -3 0 -2 -63 -132 -139 -288 -77 -156 -175 -362 -219 -458
-65 -141 -82 -170 -87 -150 -3 13 -19 125 -35 249 l-30 224 50 76 c28 42 50
79 50 83 0 4 -88 7 -196 7 -153 0 -195 3 -191 13 118 285 192 462 262 627 47
113 100 240 118 282 32 79 47 96 47 56z"/>
<path d="M797 2003 c-23 -23 37 -123 74 -123 27 0 44 37 28 58 -48 63 -82 85
-102 65z"/>
<path d="M1740 1970 c-63 -79 -12 -126 54 -49 39 46 43 58 24 77 -21 21 -46
13 -78 -28z"/>
<path d="M742 1828 c-22 -22 -12 -38 64 -94 76 -56 94 -61 113 -27 13 25 8 31
-68 86 -65 48 -88 56 -109 35z"/>
<path d="M1778 1806 c-90 -62 -106 -88 -74 -115 18 -15 51 0 125 59 39 31 51
47 49 63 -5 34 -46 31 -100 -7z"/>
<path d="M1707 819 c-35 -20 -20 -52 50 -103 83 -60 89 -62 113 -41 26 23 14
44 -53 93 -74 55 -89 62 -110 51z"/>
<path d="M798 764 c-38 -30 -68 -59 -68 -64 0 -13 30 -40 44 -40 14 0 140 92
151 110 3 6 3 19 0 30 -11 36 -54 23 -127 -36z"/>
<path d="M822 607 c-35 -36 -40 -58 -17 -77 13 -11 20 -10 42 7 15 10 36 31
46 46 17 22 18 29 7 42 -19 23 -43 18 -78 -18z"/>
<path d="M1713 624 c-8 -20 17 -62 51 -88 25 -19 26 -19 46 -1 26 24 26 28
-11 70 -33 38 -75 47 -86 19z"/>
</g>
</svg>
